<?xml version="1.0" encoding="UTF-8" standalone="no"?>
<!-- Generator: Adobe Illustrator 12.0.1, SVG Export Plug-In . SVG Version: 6.00 Build 51448)  -->
<svg
   xmlns:dc="http://purl.org/dc/elements/1.1/"
   xmlns:cc="http://creativecommons.org/ns#"
   xmlns:rdf="http://www.w3.org/1999/02/22-rdf-syntax-ns#"
   xmlns:svg="http://www.w3.org/2000/svg"
   xmlns="http://www.w3.org/2000/svg"
   xmlns:sodipodi="http://sodipodi.sourceforge.net/DTD/sodipodi-0.dtd"
   xmlns:inkscape="http://www.inkscape.org/namespaces/inkscape"
   version="1.1"
   id="Layer_1"
   width="485.952"
   height="187.819"
   viewBox="0 0 485.952 187.819"
   style="overflow:visible;enable-background:new 0 0 485.952 187.819;"
   xml:space="preserve"
   sodipodi:version="0.32"
   inkscape:version="0.46"
   sodipodi:docname="Amylose2.svg"
   inkscape:output_extension="org.inkscape.output.svg.inkscape"><metadata
   id="metadata206"><rdf:RDF><cc:Work
       rdf:about=""><dc:format>image/svg+xml</dc:format><dc:type
         rdf:resource="http://purl.org/dc/dcmitype/StillImage" /></cc:Work></rdf:RDF></metadata><defs
   id="defs204"><inkscape:perspective
   sodipodi:type="inkscape:persp3d"
   inkscape:vp_x="0 : 93.9095 : 1"
   inkscape:vp_y="0 : 1000 : 0"
   inkscape:vp_z="485.952 : 93.9095 : 1"
   inkscape:persp3d-origin="242.976 : 62.606333 : 1"
   id="perspective208" />
	

	
	

	
	

	
	

	
	

	

	
	

	

	
	

	

	
	

	
	

	

	
	

	

	
	

	
	

	

	
	

	
	

	

	
	

	
	
	
	
	
	
	
</defs><sodipodi:namedview
   inkscape:window-height="675"
   inkscape:window-width="661"
   inkscape:pageshadow="2"
   inkscape:pageopacity="0.0"
   guidetolerance="10.0"
   gridtolerance="10.0"
   objecttolerance="10.0"
   borderopacity="1.0"
   bordercolor="#666666"
   pagecolor="#ffffff"
   id="base"
   showgrid="false"
   inkscape:zoom="1.1194521"
   inkscape:cx="242.976"
   inkscape:cy="93.9095"
   inkscape:window-x="220"
   inkscape:window-y="220"
   inkscape:current-layer="Layer_1" />
<path
   style="fill:#231f20"
   d="M 100.9206,123.4455 L 103.6281,125.868 L 102.8206,128.2905 L 51.9481,128.2905 L 54.6081,125.868 L 55.4156,123.4455 L 100.9206,123.4455 z"
   id="polygon3" />
<path
   style="fill:#231f20"
   d="M 20.7881,93.3305 L 19.9806,91.193 L 21.1681,91.193 L 53.8006,120.31145 L 54.6081,125.868 L 51.9481,128.2905 L 20.7881,93.3305 z"
   id="polygon5" />
<path
   style="fill:#231f20"
   d="M 53.8006,56.233 L 54.6081,56.5655 L 54.9406,57.373 L 21.1681,91.193 L 19.9806,91.193 L 19.1731,90.8605 L 53.8006,56.233 z"
   id="polygon7" />
<path
   id="path11"
   d="M 95.84475,57.59625 C 95.84475,54.8859 96.57245,52.7655 98.02785,51.23315 C 99.48325,49.69985 101.36235,48.9332 103.6642,48.9332 C 105.17185,48.9332 106.53035,49.29325 107.74065,50.01335 C 108.95095,50.7344 109.8734,51.7376 110.50895,53.0258 C 111.1445,54.314 111.46085,55.7751 111.46085,57.4072 C 111.46085,59.06305 111.12645,60.5441 110.4586,61.85035 C 109.79075,63.1566 108.8436,64.1465 107.6181,64.81815 C 106.3926,65.4898 105.07115,65.8261 103.6528,65.8261 C 102.1157,65.8261 100.742,65.45465 99.5317,64.7127 C 98.3214,63.97075 97.40465,62.95615 96.7805,61.6727 C 96.15635,60.38925 95.84475,59.0298 95.84475,57.59625 z M 98.0706,57.6238 C 98.0706,59.5903 98.59975,61.13975 99.65805,62.27215 C 100.71635,63.40455 102.04445,63.9698 103.64045,63.9698 C 105.26685,63.9698 106.6054,63.3979 107.65705,62.25505 C 108.70775,61.1122 109.2331,59.49055 109.2331,57.3901 C 109.2331,56.062 109.0089,54.90205 108.55955,53.9112 C 108.1102,52.92035 107.4528,52.1518 106.58735,51.6065 C 105.7219,51.0612 104.751,50.78855 103.67465,50.78855 C 102.14515,50.78855 100.82845,51.3139 99.7255,52.36365 C 98.62255,53.4134 98.0706,55.1671 98.0706,57.6238 z"
   style="fill:#231f20" />
<path
   style="fill:#231f20"
   d="M 93.6056,55.758 L 93.6056,57.373 L 54.9406,57.373 L 54.6081,56.5655 L 55.4156,55.758 L 93.6056,55.758 z"
   id="polygon13" />
<path
   style="fill:#231f20"
   d="M 138.9206,90.718 L 138.3031,91.193 L 137.1156,91.193 L 110.9431,64.973 L 112.0831,63.833 L 138.9206,90.718 z"
   id="polygon15" />
<path
   style="fill:#231f20"
   d="M 104.4356,130.428 L 103.6281,125.868 L 100.9206,123.4455 L 137.1156,91.193 L 138.3031,91.193 L 138.1606,92.5705 L 104.4356,130.428 z"
   id="polygon17" />
<path
   id="path21"
   d="M 95.84475,164.61375 C 95.84475,161.9034 96.57245,159.783 98.02785,158.25065 C 99.48325,156.71735 101.36235,155.9507 103.6642,155.9507 C 105.17185,155.9507 106.53035,156.31075 107.74065,157.03085 C 108.95095,157.7519 109.8734,158.7551 110.50895,160.0433 C 111.1445,161.3315 111.46085,162.7926 111.46085,164.4247 C 111.46085,166.08055 111.12645,167.5616 110.4586,168.86785 C 109.79075,170.1741 108.8436,171.164 107.6181,171.83565 C 106.3926,172.5073 105.07115,172.8436 103.6528,172.8436 C 102.1157,172.8436 100.742,172.47215 99.5317,171.7302 C 98.3214,170.98825 97.40465,169.97365 96.7805,168.6902 C 96.15635,167.40675 95.84475,166.0473 95.84475,164.61375 z M 98.0706,164.64225 C 98.0706,166.60875 98.59975,168.1582 99.65805,169.2906 C 100.71635,170.423 102.04445,170.98825 103.64045,170.98825 C 105.26685,170.98825 106.6054,170.41635 107.65705,169.2735 C 108.70775,168.13065 109.2331,166.509 109.2331,164.40855 C 109.2331,163.08045 109.0089,161.9205 108.55955,160.92965 C 108.1102,159.9388 107.4528,159.17025 106.58735,158.62495 C 105.7219,158.07965 104.751,157.807 103.67465,157.807 C 102.14515,157.807 100.82845,158.33235 99.7255,159.3821 C 98.62255,160.43185 98.0706,162.18555 98.0706,164.64225 z"
   style="fill:#231f20" /><path
   id="path23"
   d="M 114.3213,172.56145 L 114.3213,156.23285 L 116.48825,156.23285 L 116.48825,162.9427 L 124.9347,162.9427 L 124.9347,156.23285 L 127.10165,156.23285 L 127.10165,172.56145 L 124.9347,172.56145 L 124.9347,164.87215 L 116.48825,164.87215 L 116.48825,172.56145 L 114.3213,172.56145 z"
   style="fill:#231f20" />
<path
   style="fill:#231f20"
   d="M 104.4356,153.7505 L 102.8206,153.7505 L 102.8206,128.2905 L 103.6281,125.868 L 104.4356,130.428 L 104.4356,153.7505 z"
   id="polygon25" />
<path
   style="fill:#231f20"
   d="M 152.8381,114.84895 L 151.4606,115.6555 L 138.1606,92.5705 L 138.3031,91.193 L 138.9206,90.718 L 152.8381,114.84895 z"
   id="polygon27" />
<path
   id="path31"
   d="M 12.1488,129.93875 C 12.1488,127.2284 12.8765,125.108 14.3319,123.57565 C 15.7873,122.04235 17.6664,121.2757 19.96825,121.2757 C 21.4759,121.2757 22.8344,121.63575 24.0447,122.35585 C 25.255,123.0769 26.17745,124.0801 26.813,125.3683 C 27.44855,126.6565 27.7649,128.1176 27.7649,129.7497 C 27.7649,131.40555 27.4305,132.8866 26.76265,134.19285 C 26.0948,135.4991 25.14765,136.489 23.92215,137.16065 C 22.69665,137.8323 21.3752,138.1686 19.95685,138.1686 C 18.41975,138.1686 17.04605,137.79715 15.83575,137.0552 C 14.62545,136.31325 13.7087,135.29865 13.08455,134.0152 C 12.4604,132.73175 12.1488,131.3723 12.1488,129.93875 z M 14.3756,129.96725 C 14.3756,131.93375 14.90475,133.4832 15.96305,134.6156 C 17.02135,135.748 18.34945,136.31325 19.94545,136.31325 C 21.57185,136.31325 22.9104,135.74135 23.96205,134.5985 C 25.01275,133.45565 25.5381,131.834 25.5381,129.73355 C 25.5381,128.40545 25.3139,127.2455 24.86455,126.25465 C 24.4152,125.2638 23.7578,124.49525 22.89235,123.94995 C 22.0269,123.40465 21.056,123.132 19.97965,123.132 C 18.45015,123.132 17.13345,123.65735 16.0305,124.7071 C 14.92755,125.75685 14.3756,127.51055 14.3756,129.96725 z"
   style="fill:#231f20" /><path
   id="path33"
   d="M 30.62535,137.88645 L 30.62535,121.55785 L 32.7923,121.55785 L 32.7923,128.2677 L 41.23875,128.2677 L 41.23875,121.55785 L 43.4057,121.55785 L 43.4057,137.88645 L 41.23875,137.88645 L 41.23875,130.19715 L 32.7923,130.19715 L 32.7923,137.88645 L 30.62535,137.88645 z"
   style="fill:#231f20" />
<path
   style="fill:#231f20"
   d="M 20.7881,119.12395 L 19.1731,119.12395 L 19.1731,90.8605 L 19.9806,91.193 L 20.7881,93.3305 L 20.7881,119.12395 z"
   id="polygon35" />
<path
   id="path39"
   d="M 46.8238,89.18375 C 46.8238,86.4734 47.5515,84.353 49.0069,82.82065 C 50.4623,81.28735 52.3414,80.5207 54.64325,80.5207 C 56.1509,80.5207 57.5094,80.88075 58.7197,81.60085 C 59.93,82.3219 60.85245,83.3251 61.488,84.6133 C 62.12355,85.9015 62.4399,87.3626 62.4399,88.9947 C 62.4399,90.65055 62.1055,92.1316 61.43765,93.43785 C 60.7698,94.7441 59.82265,95.734 58.59715,96.40565 C 57.37165,97.0773 56.0502,97.4136 54.63185,97.4136 C 53.09475,97.4136 51.72105,97.04215 50.51075,96.3002 C 49.30045,95.55825 48.3837,94.54365 47.75955,93.2602 C 47.1354,91.97675 46.8238,90.6173 46.8238,89.18375 z M 49.0506,89.2113 C 49.0506,91.1778 49.57975,92.72725 50.63805,93.85965 C 51.69635,94.99205 53.02445,95.5573 54.62045,95.5573 C 56.24685,95.5573 57.5854,94.9854 58.63705,93.84255 C 59.68775,92.6997 60.2131,91.07805 60.2131,88.9776 C 60.2131,87.6495 59.9889,86.48955 59.53955,85.4987 C 59.0902,84.50785 58.4328,83.7393 57.56735,83.194 C 56.7019,82.6487 55.731,82.37605 54.65465,82.37605 C 53.12515,82.37605 51.80845,82.9014 50.7055,83.95115 C 49.60255,85.0009 49.0506,86.7546 49.0506,89.2113 z"
   style="fill:#231f20" /><path
   id="path41"
   d="M 65.30035,97.1305 L 65.30035,80.80285 L 67.4673,80.80285 L 67.4673,87.5127 L 75.91375,87.5127 L 75.91375,80.80285 L 78.0807,80.80285 L 78.0807,97.1305 L 75.91375,97.1305 L 75.91375,89.4412 L 67.4673,89.4412 L 67.4673,97.1305 L 65.30035,97.1305 z"
   style="fill:#231f20" />
<path
   style="fill:#231f20"
   d="M 53.8006,99.553 L 55.4156,99.553 L 55.4156,123.4455 L 54.6081,125.868 L 53.8006,120.31145 L 53.8006,99.553 z"
   id="polygon43" />
<path
   id="path47"
   d="M 59.8274,22.10235 L 61.99435,22.64765 C 61.54215,24.42415 60.728,25.77885 59.5538,26.7108 C 58.37865,27.64275 56.9413,28.11015 55.24365,28.11015 C 53.48615,28.11015 52.05735,27.752 50.9563,27.03475 C 49.85525,26.31845 49.01735,25.27915 48.4426,23.92065 C 47.86785,22.5612 47.58095,21.10105 47.58095,19.5421 C 47.58095,17.8416 47.9049,16.35675 48.55375,15.0904 C 49.2026,13.82405 50.12505,12.86075 51.323,12.2043 C 52.52,11.54785 53.8367,11.2182 55.275,11.2182 C 56.90615,11.2182 58.277,11.6343 59.3885,12.4665 C 60.50095,13.29965 61.2752,14.4691 61.7122,15.97865 L 59.5899,16.4793 C 59.2118,15.2918 58.66365,14.4273 57.94545,13.8858 C 57.2263,13.3443 56.3219,13.07355 55.2332,13.07355 C 53.9811,13.07355 52.9342,13.37375 52.0925,13.9751 C 51.25175,14.57645 50.66085,15.383 50.3198,16.39665 C 49.97875,17.4103 49.8087,18.45435 49.8087,19.5307 C 49.8087,20.91865 50.0101,22.1299 50.41385,23.1654 C 50.8176,24.2009 51.4446,24.9742 52.29675,25.48625 C 53.1489,25.9983 54.0704,26.2548 55.06315,26.2548 C 56.2706,26.2548 57.29185,25.90615 58.1288,25.2079 C 58.96575,24.50965 59.53005,23.4751 59.8274,22.10235 z"
   style="fill:#231f20" /><path
   id="path49"
   d="M 64.74365,27.828 L 64.74365,11.50035 L 66.9106,11.50035 L 66.9106,18.2102 L 75.35705,18.2102 L 75.35705,11.50035 L 77.524,11.50035 L 77.524,27.828 L 75.35705,27.828 L 75.35705,20.1387 L 66.9106,20.1387 L 66.9106,27.828 L 64.74365,27.828 z"
   style="fill:#231f20" />
<path
   id="path53"
   d="M 87.88945,30.6628 L 87.88945,32.103 L 79.785,32.103 C 79.7736,31.74105 79.8325,31.39335 79.9617,31.05895 C 80.1688,30.50795 80.50035,29.9655 80.9573,29.4316 C 81.4133,28.8977 82.0688,28.28115 82.9238,27.58195 C 84.25,26.4866 85.1487,25.62115 85.6218,24.98465 C 86.0949,24.34815 86.33145,23.7449 86.33145,23.1768 C 86.33145,22.5821 86.1177,22.08145 85.6902,21.672 C 85.2627,21.2635 84.70505,21.05925 84.0182,21.05925 C 83.2905,21.05925 82.71005,21.2768 82.274,21.71285 C 81.83795,22.1489 81.61755,22.75215 81.61185,23.5226 L 80.0681,23.3592 C 80.17355,22.204 80.57255,21.3243 81.2651,20.7201 C 81.9567,20.114 82.8858,19.8119 84.0524,19.8119 C 85.22945,19.8119 86.1614,20.13775 86.8473,20.78945 C 87.5332,21.44115 87.87615,22.24865 87.87615,23.21195 C 87.87615,23.70215 87.77545,24.1838 87.575,24.6569 C 87.37455,25.13 87.04015,25.62875 86.57465,26.1522 C 86.1082,26.67565 85.33585,27.39385 84.25665,28.3068 C 83.3532,29.0649 82.77275,29.5779 82.5153,29.84865 C 82.25785,30.1175 82.0441,30.3892 81.87595,30.66185 L 87.88945,30.66185 L 87.88945,30.6628 z"
   style="fill:#231f20" />
<path
   id="path57"
   d="M 89.1501,19.88125 C 89.1501,17.1709 89.8778,15.0505 91.3332,13.51815 C 92.7886,11.98485 94.6677,11.2182 96.96955,11.2182 C 98.4772,11.2182 99.8357,11.57825 101.046,12.29835 C 102.2563,13.0194 103.17875,14.0226 103.8143,15.3108 C 104.44985,16.599 104.7662,18.0601 104.7662,19.6922 C 104.7662,21.34805 104.4318,22.8291 103.76395,24.13535 C 103.0961,25.4416 102.14895,26.4315 100.92345,27.10315 C 99.69795,27.7748 98.3765,28.1111 96.95815,28.1111 C 95.42105,28.1111 94.04735,27.73965 92.83705,26.9977 C 91.62675,26.25575 90.71,25.24115 90.08585,23.9577 C 89.4617,22.67425 89.1501,21.3148 89.1501,19.88125 z M 91.37595,19.9088 C 91.37595,21.8753 91.9051,23.42475 92.9634,24.55715 C 94.0217,25.68955 95.3498,26.2548 96.9458,26.2548 C 98.5722,26.2548 99.91075,25.6829 100.9624,24.54005 C 102.0131,23.3972 102.53845,21.77555 102.53845,19.6751 C 102.53845,18.347 102.31425,17.18705 101.8649,16.1962 C 101.41555,15.20535 100.75815,14.4368 99.8927,13.8915 C 99.02725,13.3462 98.05635,13.07355 96.98,13.07355 C 95.4505,13.07355 94.1338,13.5989 93.03085,14.64865 C 91.9279,15.6984 91.37595,17.4521 91.37595,19.9088 z"
   style="fill:#231f20" /><path
   id="path59"
   d="M 107.62665,27.828 L 107.62665,11.50035 L 109.7936,11.50035 L 109.7936,18.2102 L 118.24005,18.2102 L 118.24005,11.50035 L 120.407,11.50035 L 120.407,27.828 L 118.24005,27.828 L 118.24005,20.1387 L 109.7936,20.1387 L 109.7936,27.828 L 107.62665,27.828 z"
   style="fill:#231f20" />
<path
   style="fill:#231f20"
   d="M 53.8006,30.2505 L 55.4156,30.2505 L 55.4156,55.758 L 54.6081,56.5655 L 53.8006,56.233 L 53.8006,30.2505 z"
   id="polygon61" />
<path
   style="fill:#231f20"
   d="M 256.9106,123.4455 L 259.6656,125.868 L 258.8581,128.2905 L 207.9381,128.2905 L 210.6456,125.868 L 211.4531,123.4455 L 256.9106,123.4455 z"
   id="polygon63" />
<path
   style="fill:#231f20"
   d="M 176.1606,92.5705 L 176.0181,91.193 L 177.1581,91.193 L 209.8381,120.31145 L 210.6456,125.868 L 207.9381,128.2905 L 176.1606,92.5705 z"
   id="polygon65" />
<path
   style="fill:#231f20"
   d="M 209.8381,56.233 L 210.6456,56.5655 L 210.9781,57.373 L 177.1581,91.193 L 176.0181,91.193 L 175.3531,90.718 L 209.8381,56.233 z"
   id="polygon67" />
<path
   id="path71"
   d="M 251.8338,57.59625 C 251.8338,54.8859 252.5615,52.7655 254.01785,51.23315 C 255.4723,49.69985 257.35235,48.9332 259.65325,48.9332 C 261.16185,48.9332 262.52035,49.29325 263.7297,50.01335 C 264.94,50.7344 265.8634,51.7376 266.498,53.0258 C 267.1326,54.314 267.4499,55.7751 267.4499,57.4072 C 267.4499,59.06305 267.1155,60.5441 266.44765,61.85035 C 265.7798,63.1566 264.83265,64.1465 263.60715,64.81815 C 262.3826,65.4898 261.0602,65.8261 259.64185,65.8261 C 258.1057,65.8261 256.73105,65.45465 255.52075,64.7127 C 254.31045,63.97075 253.39465,62.95615 252.76955,61.6727 C 252.14445,60.38925 251.8338,59.0298 251.8338,57.59625 z M 254.0606,57.6238 C 254.0606,59.5903 254.58975,61.13975 255.649,62.27215 C 256.70635,63.4036 258.0354,63.9698 259.63045,63.9698 C 261.2578,63.9698 262.5954,63.3979 263.648,62.25505 C 264.69775,61.1122 265.2231,59.49055 265.2231,57.3901 C 265.2231,56.062 264.9989,54.90205 264.54955,53.9112 C 264.1002,52.92035 263.4428,52.1518 262.57735,51.6065 C 261.71285,51.0612 260.74195,50.78855 259.66465,50.78855 C 258.1361,50.78855 256.81845,51.3139 255.71645,52.36365 C 254.6116,53.41435 254.0606,55.1671 254.0606,57.6238 z"
   style="fill:#231f20" />
<path
   style="fill:#231f20"
   d="M 249.6431,55.758 L 249.6431,57.373 L 210.9781,57.373 L 210.6456,56.5655 L 211.4531,55.758 L 249.6431,55.758 z"
   id="polygon73" />
<path
   style="fill:#231f20"
   d="M 294.9581,90.718 L 294.3406,91.193 L 293.1531,91.193 L 266.9331,64.973 L 268.0731,63.833 L 294.9581,90.718 z"
   id="polygon75" />
<path
   style="fill:#231f20"
   d="M 260.4731,130.428 L 259.6656,125.868 L 256.9106,123.4455 L 293.1531,91.193 L 294.3406,91.193 L 294.1981,92.5705 L 260.4731,130.428 z"
   id="polygon77" />
<path
   id="path81"
   d="M 251.8338,164.61375 C 251.8338,161.9034 252.5615,159.783 254.01785,158.25065 C 255.4723,156.71735 257.35235,155.9507 259.65325,155.9507 C 261.16185,155.9507 262.52035,156.31075 263.7297,157.03085 C 264.94,157.7519 265.8634,158.7551 266.498,160.0433 C 267.1326,161.3315 267.4499,162.7926 267.4499,164.4247 C 267.4499,166.08055 267.1155,167.5616 266.44765,168.86785 C 265.7798,170.1741 264.83265,171.164 263.60715,171.83565 C 262.3826,172.5073 261.0602,172.8436 259.64185,172.8436 C 258.1057,172.8436 256.73105,172.47215 255.52075,171.7302 C 254.31045,170.98825 253.39465,169.97365 252.76955,168.6902 C 252.14445,167.40675 251.8338,166.0473 251.8338,164.61375 z M 254.0606,164.64225 C 254.0606,166.60875 254.58975,168.1582 255.649,169.2906 C 256.70635,170.42205 258.0354,170.98825 259.63045,170.98825 C 261.2578,170.98825 262.5954,170.41635 263.648,169.2735 C 264.69775,168.13065 265.2231,166.509 265.2231,164.40855 C 265.2231,163.08045 264.9989,161.9205 264.54955,160.92965 C 264.1002,159.9388 263.4428,159.17025 262.57735,158.62495 C 261.71285,158.07965 260.74195,157.807 259.66465,157.807 C 258.1361,157.807 256.81845,158.33235 255.71645,159.3821 C 254.6116,160.43185 254.0606,162.18555 254.0606,164.64225 z"
   style="fill:#231f20" /><path
   id="path83"
   d="M 270.31035,172.56145 L 270.31035,156.23285 L 272.4773,156.23285 L 272.4773,162.9427 L 280.92375,162.9427 L 280.92375,156.23285 L 283.0907,156.23285 L 283.0907,172.56145 L 280.92375,172.56145 L 280.92375,164.87215 L 272.4773,164.87215 L 272.4773,172.56145 L 270.31035,172.56145 z"
   style="fill:#231f20" />
<path
   style="fill:#231f20"
   d="M 260.4731,153.7505 L 258.8581,153.7505 L 258.8581,128.2905 L 259.6656,125.868 L 260.4731,130.428 L 260.4731,153.7505 z"
   id="polygon85" />
<path
   style="fill:#231f20"
   d="M 308.87655,114.84895 L 307.4981,115.6555 L 294.1981,92.5705 L 294.3406,91.193 L 294.9581,90.718 L 308.87655,114.84895 z"
   id="polygon87" />
<path
   id="path91"
   d="M 149.3288,124.90375 C 149.3288,122.1934 150.0565,120.073 151.5119,118.54065 C 152.9673,117.00735 154.8464,116.2407 157.14825,116.2407 C 158.6559,116.2407 160.0144,116.60075 161.2247,117.32085 C 162.435,118.0419 163.35745,119.0451 163.993,120.3333 C 164.62855,121.6215 164.9449,123.0826 164.9449,124.7147 C 164.9449,126.37055 164.6105,127.8516 163.94265,129.15785 C 163.2748,130.4641 162.32765,131.454 161.10215,132.12565 C 159.87665,132.7973 158.5552,133.1336 157.13685,133.1336 C 155.59975,133.1336 154.22605,132.76215 153.01575,132.0202 C 151.80545,131.27825 150.8887,130.26365 150.26455,128.9802 C 149.6404,127.69675 149.3288,126.33635 149.3288,124.90375 z M 151.5556,124.9313 C 151.5556,126.8978 152.08475,128.44725 153.14305,129.57965 C 154.20135,130.71205 155.52945,131.2773 157.12545,131.2773 C 158.75185,131.2773 160.0904,130.7054 161.14205,129.56255 C 162.19275,128.4197 162.7181,126.79805 162.7181,124.6976 C 162.7181,123.3695 162.4939,122.20955 162.04455,121.2187 C 161.5952,120.22785 160.9378,119.4593 160.07235,118.914 C 159.2069,118.3687 158.236,118.09605 157.15965,118.09605 C 155.63015,118.09605 154.31345,118.6214 153.2105,119.67115 C 152.10755,120.7209 151.5556,122.4746 151.5556,124.9313 z"
   style="fill:#231f20" />
<path
   style="fill:#231f20"
   d="M 162.8131,115.6555 L 161.4356,114.84895 L 175.3531,90.718 L 176.0181,91.193 L 176.1606,92.5705 L 162.8131,115.6555 z"
   id="polygon93" />
<path
   id="path97"
   d="M 202.8613,89.18375 C 202.8613,86.4734 203.589,84.353 205.0444,82.82065 C 206.4998,81.28735 208.3789,80.5207 210.68075,80.5207 C 212.1884,80.5207 213.5469,80.88075 214.7572,81.60085 C 215.9675,82.3219 216.88995,83.3251 217.5255,84.6133 C 218.16105,85.9015 218.4774,87.3626 218.4774,88.9947 C 218.4774,90.65055 218.143,92.1316 217.47515,93.43785 C 216.8073,94.7441 215.86015,95.734 214.63465,96.40565 C 213.40915,97.0773 212.0877,97.4136 210.66935,97.4136 C 209.13225,97.4136 207.75855,97.04215 206.54825,96.3002 C 205.33795,95.55825 204.4212,94.54365 203.79705,93.2602 C 203.1729,91.97675 202.8613,90.6173 202.8613,89.18375 z M 205.0881,89.2113 C 205.0881,91.1778 205.61725,92.72725 206.67555,93.85965 C 207.73385,94.99205 209.06195,95.5573 210.65795,95.5573 C 212.28435,95.5573 213.6229,94.9854 214.67455,93.84255 C 215.72525,92.6997 216.2506,91.07805 216.2506,88.9776 C 216.2506,87.6495 216.0264,86.48955 215.57705,85.4987 C 215.1277,84.50785 214.4703,83.7393 213.60485,83.194 C 212.7394,82.6487 211.7685,82.37605 210.69215,82.37605 C 209.16265,82.37605 207.84595,82.9014 206.743,83.95115 C 205.64005,85.0009 205.0881,86.7546 205.0881,89.2113 z"
   style="fill:#231f20" /><path
   id="path99"
   d="M 221.3388,97.1305 L 221.3388,80.80285 L 223.50575,80.80285 L 223.50575,87.5127 L 231.9522,87.5127 L 231.9522,80.80285 L 234.11915,80.80285 L 234.11915,97.1305 L 231.9522,97.1305 L 231.9522,89.4412 L 223.50575,89.4412 L 223.50575,97.1305 L 221.3388,97.1305 z"
   style="fill:#231f20" />
<path
   style="fill:#231f20"
   d="M 209.8381,99.553 L 211.4531,99.553 L 211.4531,123.4455 L 210.6456,125.868 L 209.8381,120.31145 L 209.8381,99.553 z"
   id="polygon101" />
<path
   id="path105"
   d="M 215.8649,22.10235 L 218.03185,22.64765 C 217.57965,24.42415 216.7655,25.77885 215.5913,26.7108 C 214.41615,27.64275 212.9788,28.11015 211.28115,28.11015 C 209.52365,28.11015 208.09485,27.752 206.9938,27.03475 C 205.89275,26.31845 205.05485,25.27915 204.4801,23.92065 C 203.90535,22.5612 203.61845,21.10105 203.61845,19.5421 C 203.61845,17.8416 203.9424,16.35675 204.59125,15.0904 C 205.2401,13.82405 206.16255,12.86075 207.3605,12.2043 C 208.5575,11.54785 209.8742,11.2182 211.3125,11.2182 C 212.94365,11.2182 214.3145,11.6343 215.426,12.4665 C 216.53845,13.29965 217.3127,14.4691 217.7497,15.97865 L 215.6274,16.4793 C 215.2493,15.2918 214.70115,14.4273 213.98295,13.8858 C 213.2638,13.3443 212.3594,13.07355 211.2707,13.07355 C 210.0186,13.07355 208.9717,13.37375 208.13,13.9751 C 207.28925,14.57645 206.69835,15.383 206.3573,16.39665 C 206.01625,17.4103 205.8462,18.45435 205.8462,19.5307 C 205.8462,20.91865 206.0476,22.1299 206.45135,23.1654 C 206.8551,24.2009 207.4821,24.9742 208.33425,25.48625 C 209.1864,25.9983 210.1079,26.2548 211.10065,26.2548 C 212.3081,26.2548 213.32935,25.90615 214.1663,25.2079 C 215.00325,24.50965 215.5685,23.4751 215.8649,22.10235 z"
   style="fill:#231f20" /><path
   id="path107"
   d="M 220.7821,27.828 L 220.7821,11.50035 L 222.94905,11.50035 L 222.94905,18.2102 L 231.3955,18.2102 L 231.3955,11.50035 L 233.56245,11.50035 L 233.56245,27.828 L 231.3955,27.828 L 231.3955,20.1387 L 222.94905,20.1387 L 222.94905,27.828 L 220.7821,27.828 z"
   style="fill:#231f20" />
<path
   id="path111"
   d="M 243.92695,30.6628 L 243.92695,32.103 L 235.8225,32.103 C 235.8111,31.74105 235.87,31.39335 235.9992,31.05895 C 236.2063,30.50795 236.53785,29.9655 236.9948,29.4316 C 237.4508,28.8977 238.1063,28.28115 238.9613,27.58195 C 240.2875,26.4866 241.1862,25.62115 241.6593,24.98465 C 242.1324,24.34815 242.36895,23.7449 242.36895,23.1768 C 242.36895,22.5821 242.1552,22.08145 241.7277,21.672 C 241.3002,21.2635 240.74255,21.05925 240.0557,21.05925 C 239.328,21.05925 238.74755,21.2768 238.3115,21.71285 C 237.87545,22.1489 237.65505,22.75215 237.64935,23.5226 L 236.1056,23.3592 C 236.21105,22.204 236.61005,21.3243 237.3026,20.7201 C 237.9942,20.114 238.9233,19.8119 240.0899,19.8119 C 241.26695,19.8119 242.1989,20.13775 242.8848,20.78945 C 243.5707,21.44115 243.91365,22.24865 243.91365,23.21195 C 243.91365,23.70215 243.81295,24.1838 243.6125,24.6569 C 243.41205,25.13 243.07765,25.62875 242.61215,26.1522 C 242.1457,26.67565 241.37335,27.39385 240.29415,28.3068 C 239.3907,29.0649 238.81025,29.5779 238.5528,29.84865 C 238.29535,30.1175 238.0816,30.3892 237.91345,30.66185 L 243.92695,30.66185 L 243.92695,30.6628 z"
   style="fill:#231f20" />
<path
   id="path115"
   d="M 245.1876,19.88125 C 245.1876,17.1709 245.9153,15.0505 247.3707,13.51815 C 248.8261,11.98485 250.7052,11.2182 253.0061,11.2182 C 254.5147,11.2182 255.8732,11.57825 257.08255,12.29835 C 258.29285,13.0194 259.21625,14.0226 259.85085,15.3108 C 260.48545,16.599 260.80275,18.0601 260.80275,19.6922 C 260.80275,21.34805 260.46835,22.8291 259.8005,24.13535 C 259.13265,25.4416 258.1855,26.4315 256.96,27.10315 C 255.73545,27.7748 254.41305,28.1111 252.9947,28.1111 C 251.45855,28.1111 250.0839,27.73965 248.8736,26.9977 C 247.6633,26.25575 246.74655,25.24115 246.1224,23.9577 C 245.49825,22.67425 245.1876,21.3148 245.1876,19.88125 z M 247.4144,19.9088 C 247.4144,21.8753 247.94355,23.42475 249.00185,24.55715 C 250.0592,25.6886 251.38825,26.2548 252.9833,26.2548 C 254.61065,26.2548 255.94825,25.6829 257.00085,24.54005 C 258.0506,23.3972 258.57595,21.77555 258.57595,19.6751 C 258.57595,18.347 258.35175,17.18705 257.9024,16.1962 C 257.45305,15.20535 256.79565,14.4368 255.9302,13.8915 C 255.0657,13.3462 254.0948,13.07355 253.0175,13.07355 C 251.48895,13.07355 250.1713,13.5989 249.0693,14.64865 C 247.9654,15.69935 247.4144,17.4521 247.4144,19.9088 z"
   style="fill:#231f20" /><path
   id="path117"
   d="M 263.66415,27.828 L 263.66415,11.50035 L 265.8311,11.50035 L 265.8311,18.2102 L 274.27755,18.2102 L 274.27755,11.50035 L 276.4445,11.50035 L 276.4445,27.828 L 274.27755,27.828 L 274.27755,20.1387 L 265.8311,20.1387 L 265.8311,27.828 L 263.66415,27.828 z"
   style="fill:#231f20" />
<path
   style="fill:#231f20"
   d="M 209.8381,30.2505 L 211.4531,30.2505 L 211.4531,55.758 L 210.6456,56.5655 L 209.8381,56.233 L 209.8381,30.2505 z"
   id="polygon119" />
<path
   style="fill:#231f20"
   d="M 412.9481,123.4455 L 415.7031,125.868 L 414.8956,128.2905 L 363.97655,128.2905 L 366.6831,125.868 L 367.4906,123.4455 L 412.9481,123.4455 z"
   id="polygon121" />
<path
   style="fill:#231f20"
   d="M 332.15155,92.5705 L 332.0081,91.193 L 333.1956,91.193 L 365.87655,120.31145 L 366.6831,125.868 L 363.97655,128.2905 L 332.15155,92.5705 z"
   id="polygon123" />
<path
   style="fill:#231f20"
   d="M 365.87655,56.233 L 366.6831,56.5655 L 367.0156,57.373 L 333.1956,91.193 L 332.0081,91.193 L 331.3906,90.718 L 365.87655,56.233 z"
   id="polygon125" />
<path
   id="path129"
   d="M 407.87225,57.59625 C 407.87225,54.8859 408.59995,52.7655 410.05535,51.23315 C 411.51075,49.69985 413.38985,48.9332 415.6917,48.9332 C 417.19935,48.9332 418.55785,49.29325 419.76815,50.01335 C 420.97845,50.7344 421.9009,51.7376 422.5355,53.0258 C 423.17105,54.31305 423.48835,55.7751 423.48835,57.4072 C 423.48835,59.06305 423.15395,60.5441 422.48515,61.85035 C 421.8173,63.1566 420.8711,64.1465 419.6456,64.81815 C 418.4201,65.4898 417.09865,65.8261 415.6803,65.8261 C 414.1432,65.8261 412.7695,65.45465 411.5592,64.7127 C 410.3489,63.97075 409.43215,62.95615 408.808,61.6727 C 408.18385,60.3883 407.87225,59.0298 407.87225,57.59625 z M 410.09905,57.6238 C 410.09905,59.5903 410.6282,61.13975 411.6865,62.27215 C 412.7448,63.40455 414.0729,63.9698 415.6689,63.9698 C 417.2953,63.9698 418.63385,63.3979 419.6855,62.25505 C 420.73525,61.1122 421.26155,59.49055 421.26155,57.3901 C 421.26155,56.062 421.03735,54.90205 420.58705,53.9112 C 420.1377,52.92035 419.48125,52.1518 418.6158,51.6065 C 417.75035,51.0612 416.77945,50.78855 415.7031,50.78855 C 414.1736,50.78855 412.8569,51.3139 411.75395,52.36365 C 410.651,53.4134 410.09905,55.1671 410.09905,57.6238 z"
   style="fill:#231f20" />
<path
   style="fill:#231f20"
   d="M 405.6806,55.758 L 405.6806,57.373 L 367.0156,57.373 L 366.6831,56.5655 L 367.4906,55.758 L 405.6806,55.758 z"
   id="polygon131" />
<path
   style="fill:#231f20"
   d="M 451.13905,90.8605 L 450.3306,91.193 L 449.1906,91.193 L 422.9706,64.973 L 424.1106,63.833 L 451.13905,90.8605 z"
   id="polygon133" />
<path
   style="fill:#231f20"
   d="M 416.5106,130.428 L 415.7031,125.868 L 412.9481,123.4455 L 449.1906,91.193 L 450.3306,91.193 L 449.5231,93.3305 L 416.5106,130.428 z"
   id="polygon135" />
<path
   id="path139"
   d="M 407.87225,164.61375 C 407.87225,161.9034 408.59995,159.783 410.05535,158.25065 C 411.51075,156.71735 413.38985,155.9507 415.6917,155.9507 C 417.19935,155.9507 418.55785,156.31075 419.76815,157.03085 C 420.97845,157.7519 421.9009,158.7551 422.5355,160.0433 C 423.17105,161.33055 423.48835,162.7926 423.48835,164.4247 C 423.48835,166.08055 423.15395,167.5616 422.48515,168.86785 C 421.8173,170.1741 420.8711,171.164 419.6456,171.83565 C 418.4201,172.5073 417.09865,172.8436 415.6803,172.8436 C 414.1432,172.8436 412.7695,172.47215 411.5592,171.7302 C 410.3489,170.98825 409.43215,169.97365 408.808,168.6902 C 408.18385,167.4058 407.87225,166.0473 407.87225,164.61375 z M 410.09905,164.64225 C 410.09905,166.60875 410.6282,168.1582 411.6865,169.2906 C 412.7448,170.423 414.0729,170.98825 415.6689,170.98825 C 417.2953,170.98825 418.63385,170.41635 419.6855,169.2735 C 420.73525,168.13065 421.26155,166.509 421.26155,164.40855 C 421.26155,163.08045 421.03735,161.9205 420.58705,160.92965 C 420.1377,159.9388 419.48125,159.17025 418.6158,158.62495 C 417.75035,158.07965 416.77945,157.807 415.7031,157.807 C 414.1736,157.807 412.8569,158.33235 411.75395,159.3821 C 410.651,160.43185 410.09905,162.18555 410.09905,164.64225 z"
   style="fill:#231f20" /><path
   id="path141"
   d="M 426.3488,172.56145 L 426.3488,156.23285 L 428.51575,156.23285 L 428.51575,162.9427 L 436.9622,162.9427 L 436.9622,156.23285 L 439.12915,156.23285 L 439.12915,172.56145 L 436.9622,172.56145 L 436.9622,164.87215 L 428.51575,164.87215 L 428.51575,172.56145 L 426.3488,172.56145 z"
   style="fill:#231f20" />
<path
   style="fill:#231f20"
   d="M 416.5106,153.7505 L 414.8956,153.7505 L 414.8956,128.2905 L 415.7031,125.868 L 416.5106,130.428 L 416.5106,153.7505 z"
   id="polygon143" />
<path
   id="path147"
   d="M 442.5463,129.93875 C 442.5463,127.2284 443.274,125.108 444.73035,123.57565 C 446.1848,122.04235 448.06485,121.2757 450.36575,121.2757 C 451.87435,121.2757 453.23285,121.63575 454.4422,122.35585 C 455.6525,123.0769 456.5759,124.0801 457.2105,125.3683 C 457.8451,126.6565 458.1624,128.1176 458.1624,129.7497 C 458.1624,131.40555 457.828,132.8866 457.16015,134.19285 C 456.4923,135.4991 455.54515,136.489 454.31965,137.16065 C 453.0951,137.8323 451.7727,138.1686 450.35435,138.1686 C 448.8182,138.1686 447.44355,137.79715 446.23325,137.0552 C 445.02295,136.31325 444.10715,135.29865 443.48205,134.0152 C 442.85695,132.73175 442.5463,131.3723 442.5463,129.93875 z M 444.7731,129.96725 C 444.7731,131.93375 445.30225,133.4832 446.3615,134.6156 C 447.41885,135.74705 448.7479,136.31325 450.34295,136.31325 C 451.9703,136.31325 453.3079,135.74135 454.3605,134.5985 C 455.41025,133.45565 455.9356,131.834 455.9356,129.73355 C 455.9356,128.40545 455.7114,127.2455 455.26205,126.25465 C 454.8127,125.2638 454.1553,124.49525 453.28985,123.94995 C 452.42535,123.40465 451.45445,123.132 450.37715,123.132 C 448.8486,123.132 447.53095,123.65735 446.42895,124.7071 C 445.3241,125.75685 444.7731,127.51055 444.7731,129.96725 z"
   style="fill:#231f20" /><path
   id="path149"
   d="M 461.02285,137.88645 L 461.02285,121.55785 L 463.1898,121.55785 L 463.1898,128.2677 L 471.63625,128.2677 L 471.63625,121.55785 L 473.8032,121.55785 L 473.8032,137.88645 L 471.63625,137.88645 L 471.63625,130.19715 L 463.1898,130.19715 L 463.1898,137.88645 L 461.02285,137.88645 z"
   style="fill:#231f20" />
<path
   style="fill:#231f20"
   d="M 451.13905,119.12395 L 449.5231,119.12395 L 449.5231,93.3305 L 450.3306,91.193 L 451.13905,90.8605 L 451.13905,119.12395 z"
   id="polygon151" />
<path
   id="path155"
   d="M 305.3663,124.90375 C 305.3663,122.1934 306.094,120.073 307.5494,118.54065 C 309.0048,117.00735 310.8839,116.2407 313.18575,116.2407 C 314.6934,116.2407 316.0519,116.60075 317.2622,117.32085 C 318.4725,118.0419 319.39495,119.0451 320.02955,120.3333 C 320.6651,121.62055 320.9824,123.0826 320.9824,124.7147 C 320.9824,126.37055 320.648,127.8516 319.9792,129.15785 C 319.31135,130.4641 318.36515,131.454 317.13965,132.12565 C 315.91415,132.7973 314.5927,133.1336 313.17435,133.1336 C 311.63725,133.1336 310.26355,132.76215 309.05325,132.0202 C 307.84295,131.27825 306.9262,130.26365 306.30205,128.9802 C 305.67885,127.69485 305.3663,126.33635 305.3663,124.90375 z M 307.5931,124.9313 C 307.5931,126.8978 308.12225,128.44725 309.18055,129.57965 C 310.23885,130.71205 311.56695,131.2773 313.16295,131.2773 C 314.78935,131.2773 316.1279,130.7054 317.17955,129.56255 C 318.2293,128.4197 318.7556,126.79805 318.7556,124.6976 C 318.7556,123.3695 318.5314,122.20955 318.0811,121.2187 C 317.63175,120.22785 316.9753,119.4593 316.10985,118.914 C 315.2444,118.3687 314.2735,118.09605 313.19715,118.09605 C 311.66765,118.09605 310.35095,118.6214 309.248,119.67115 C 308.14505,120.7209 307.5931,122.4746 307.5931,124.9313 z"
   style="fill:#231f20" />
<path
   style="fill:#231f20"
   d="M 318.85155,115.6555 L 317.42655,114.84895 L 331.3906,90.718 L 332.0081,91.193 L 332.15155,92.5705 L 318.85155,115.6555 z"
   id="polygon157" />
<path
   id="path161"
   d="M 358.8513,89.18375 C 358.8513,86.4734 359.579,84.353 361.03535,82.82065 C 362.4898,81.28735 364.36985,80.5207 366.67075,80.5207 C 368.17935,80.5207 369.53785,80.88075 370.7472,81.60085 C 371.9575,82.3219 372.8809,83.3251 373.5155,84.6133 C 374.1501,85.9015 374.4674,87.3626 374.4674,88.9947 C 374.4674,90.65055 374.133,92.1316 373.46515,93.43785 C 372.7973,94.7441 371.85015,95.734 370.62465,96.40565 C 369.4001,97.0773 368.0777,97.4136 366.65935,97.4136 C 365.1232,97.4136 363.74855,97.04215 362.53825,96.3002 C 361.32795,95.55825 360.41215,94.54365 359.78705,93.2602 C 359.16195,91.97675 358.8513,90.6173 358.8513,89.18375 z M 361.0781,89.2113 C 361.0781,91.1778 361.60725,92.72725 362.6665,93.85965 C 363.72385,94.9911 365.0529,95.5573 366.64795,95.5573 C 368.2753,95.5573 369.6129,94.9854 370.6655,93.84255 C 371.71525,92.6997 372.2406,91.07805 372.2406,88.9776 C 372.2406,87.6495 372.0164,86.48955 371.56705,85.4987 C 371.1177,84.50785 370.4603,83.7393 369.59485,83.194 C 368.73035,82.6487 367.75945,82.37605 366.68215,82.37605 C 365.1536,82.37605 363.83595,82.9014 362.73395,83.95115 C 361.6291,85.00185 361.0781,86.7546 361.0781,89.2113 z"
   style="fill:#231f20" /><path
   id="path163"
   d="M 377.32785,97.1305 L 377.32785,80.80285 L 379.4948,80.80285 L 379.4948,87.5127 L 387.94125,87.5127 L 387.94125,80.80285 L 390.1082,80.80285 L 390.1082,97.1305 L 387.94125,97.1305 L 387.94125,89.4412 L 379.4948,89.4412 L 379.4948,97.1305 L 377.32785,97.1305 z"
   style="fill:#231f20" />
<path
   style="fill:#231f20"
   d="M 365.87655,99.553 L 367.4906,99.553 L 367.4906,123.4455 L 366.6831,125.868 L 365.87655,120.31145 L 365.87655,99.553 z"
   id="polygon165" />
<path
   id="path169"
   d="M 371.8549,22.10235 L 374.02185,22.64765 C 373.56965,24.42415 372.75645,25.77885 371.58225,26.7108 C 370.40615,27.64275 368.96975,28.11015 367.2721,28.11015 C 365.5146,28.11015 364.0858,27.752 362.9838,27.03475 C 361.8837,26.31845 361.04485,25.27915 360.47105,23.92065 C 359.8963,22.5612 359.60845,21.10105 359.60845,19.5421 C 359.60845,17.8416 359.93335,16.35675 360.58125,15.0904 C 361.22915,13.82405 362.1516,12.86075 363.3505,12.2043 C 364.5475,11.54785 365.8642,11.2182 367.3025,11.2182 C 368.93365,11.2182 370.3045,11.6343 371.416,12.4665 C 372.5275,13.29965 373.30175,14.4691 373.73875,15.97865 L 371.61645,16.4793 C 371.2393,15.2918 370.6902,14.4273 369.97295,13.8858 C 369.25285,13.3443 368.3494,13.07355 367.2607,13.07355 C 366.0086,13.07355 364.9617,13.37375 364.11905,13.9751 C 363.2783,14.57645 362.6874,15.383 362.3473,16.39665 C 362.00625,17.40935 361.83525,18.45435 361.83525,19.5307 C 361.83525,20.91865 362.0376,22.1299 362.44135,23.1654 C 362.8451,24.2009 363.4721,24.9742 364.3233,25.48625 C 365.1745,25.9983 366.09695,26.2548 367.0897,26.2548 C 368.29715,26.2548 369.3184,25.90615 370.15535,25.2079 C 370.9923,24.50965 371.5585,23.4751 371.8549,22.10235 z"
   style="fill:#231f20" /><path
   id="path171"
   d="M 376.77115,27.828 L 376.77115,11.50035 L 378.9381,11.50035 L 378.9381,18.2102 L 387.38455,18.2102 L 387.38455,11.50035 L 389.5515,11.50035 L 389.5515,27.828 L 387.38455,27.828 L 387.38455,20.1387 L 378.9381,20.1387 L 378.9381,27.828 L 376.77115,27.828 z"
   style="fill:#231f20" />
<path
   id="path175"
   d="M 399.91695,30.6628 L 399.91695,32.103 L 391.8125,32.103 C 391.8011,31.74105 391.86,31.39335 391.9892,31.05895 C 392.19725,30.50795 392.52785,29.9655 392.98575,29.4316 C 393.44175,28.8977 394.09725,28.28115 394.9513,27.58195 C 396.2775,26.4866 397.17715,25.62115 397.6493,24.98465 C 398.1224,24.34815 398.35895,23.7449 398.35895,23.1768 C 398.35895,22.5821 398.1452,22.08145 397.71675,21.672 C 397.2902,21.2635 396.73255,21.05925 396.04475,21.05925 C 395.31705,21.05925 394.7366,21.2768 394.30055,21.71285 C 393.8645,22.1489 393.6441,22.75215 393.6384,23.5226 L 392.09465,23.3592 C 392.2001,22.204 392.5991,21.3243 393.29165,20.7201 C 393.9842,20.114 394.91235,19.8119 396.07895,19.8119 C 397.25505,19.8119 398.18795,20.13775 398.8729,20.78945 C 399.55975,21.44115 399.9027,22.24865 399.9027,23.21195 C 399.9027,23.70215 399.80295,24.1838 399.60155,24.6569 C 399.40015,25.13 399.0667,25.62875 398.6012,26.1522 C 398.13475,26.67565 397.3624,27.39385 396.2832,28.3068 C 395.37975,29.0649 394.7993,29.5779 394.54185,29.84865 C 394.2844,30.1175 394.07065,30.3892 393.9025,30.66185 L 399.91695,30.66185 L 399.91695,30.6628 z"
   style="fill:#231f20" />
<path
   id="path179"
   d="M 401.1776,19.88125 C 401.1776,17.1709 401.9053,15.0505 403.3607,13.51815 C 404.8161,11.98485 406.6952,11.2182 408.99705,11.2182 C 410.5047,11.2182 411.8632,11.57825 413.0735,12.29835 C 414.2838,13.0194 415.20625,14.0226 415.84085,15.3108 C 416.4764,16.59805 416.7937,18.0601 416.7937,19.6922 C 416.7937,21.34805 416.4593,22.8291 415.7905,24.13535 C 415.12265,25.4416 414.17645,26.4315 412.95095,27.10315 C 411.72545,27.7748 410.404,28.1111 408.98565,28.1111 C 407.44855,28.1111 406.07485,27.73965 404.86455,26.9977 C 403.65425,26.25575 402.7375,25.24115 402.11335,23.9577 C 401.4892,22.67235 401.1776,21.3148 401.1776,19.88125 z M 403.4044,19.9088 C 403.4044,21.8753 403.93355,23.42475 404.99185,24.55715 C 406.05015,25.68955 407.37825,26.2548 408.97425,26.2548 C 410.60065,26.2548 411.9392,25.6829 412.99085,24.54005 C 414.0406,23.3972 414.5669,21.77555 414.5669,19.6751 C 414.5669,18.347 414.3427,17.18705 413.8924,16.1962 C 413.44305,15.20535 412.7866,14.4368 411.92115,13.8915 C 411.0557,13.3462 410.0848,13.07355 409.00845,13.07355 C 407.47895,13.07355 406.16225,13.5989 405.0593,14.64865 C 403.95635,15.6984 403.4044,17.4521 403.4044,19.9088 z"
   style="fill:#231f20" /><path
   id="path181"
   d="M 419.65415,27.828 L 419.65415,11.50035 L 421.8211,11.50035 L 421.8211,18.2102 L 430.26755,18.2102 L 430.26755,11.50035 L 432.4345,11.50035 L 432.4345,27.828 L 430.26755,27.828 L 430.26755,20.1387 L 421.8211,20.1387 L 421.8211,27.828 L 419.65415,27.828 z"
   style="fill:#231f20" />
<path
   style="fill:#231f20"
   d="M 365.87655,30.2505 L 367.4906,30.2505 L 367.4906,55.758 L 366.6831,56.5655 L 365.87655,56.233 L 365.87655,30.2505 z"
   id="polygon183" />
<path
   style="fill:none;stroke:#231f20;stroke-width:1.70000005"
   d="M 181.3856,175.88645 L 170.6981,175.88645 L 170.6981,5.503 L 181.3856,5.503 M 314.9556,5.503 L 325.6431,5.503 L 325.6431,175.88645 L 314.9556,175.88645"
   id="path185" />
<path
   id="path189"
   d="M 332.7681,179.6798 L 334.2672,179.47175 C 334.44105,180.32295 334.7346,180.93665 335.1488,181.31285 C 335.56395,181.6881 336.0722,181.8762 336.67545,181.8762 C 337.3908,181.8762 337.99215,181.6311 338.4795,181.1428 C 338.9659,180.6526 339.21005,180.0465 339.21005,179.3226 C 339.21005,178.6329 338.98395,178.0648 338.52985,177.6164 C 338.0767,177.168 337.50005,176.94475 336.8018,176.94475 C 336.51585,176.94475 336.16055,177.0008 335.7359,177.11195 L 335.90405,175.7905 C 336.00475,175.8019 336.0855,175.8076 336.14725,175.8076 C 336.7885,175.8076 337.3642,175.64135 337.8772,175.3079 C 338.38925,174.97445 338.6467,174.4605 338.6467,173.76605 C 338.6467,173.216 338.45955,172.76 338.08525,172.39995 C 337.71,172.03895 337.22835,171.85845 336.6365,171.85845 C 336.05035,171.85845 335.5611,172.04275 335.17065,172.41135 C 334.77925,172.77995 334.5275,173.33285 334.41635,174.07005 L 332.91725,173.8031 C 333.1006,172.7942 333.51955,172.01235 334.17125,171.4585 C 334.8239,170.9037 335.63425,170.6263 336.6042,170.6263 C 337.273,170.6263 337.88955,170.7688 338.451,171.0557 C 339.01435,171.34165 339.4447,171.7321 339.743,172.2261 C 340.04035,172.72105 340.19045,173.24545 340.19045,173.8012 C 340.19045,174.3294 340.0489,174.8101 339.76485,175.2433 C 339.4808,175.6765 339.0609,176.0204 338.5042,176.2769 C 339.2281,176.4441 339.7905,176.79085 340.19425,177.3162 C 340.598,177.84345 340.7994,178.50085 340.7994,179.29125 C 340.7994,180.36095 340.40895,181.2663 339.62805,182.0092 C 338.8481,182.7521 337.86105,183.1245 336.66785,183.1245 C 335.59055,183.1245 334.69755,182.80435 333.98695,182.16595 C 333.2735,181.5247 332.8688,180.69725 332.7681,179.6798 z"
   style="fill:#231f20" /><path
   id="path191"
   d="M 342.27855,176.8792 C 342.27855,175.43235 342.42675,174.26575 342.726,173.3813 C 343.02335,172.4959 343.46605,171.8157 344.05315,171.33975 C 344.64025,170.8638 345.3803,170.62535 346.2714,170.62535 C 346.92785,170.62535 347.5064,170.75835 348.0042,171.0215 C 348.502,171.28655 348.91145,171.6675 349.23255,172.16625 C 349.5527,172.6631 349.8054,173.27015 349.98875,173.9855 C 350.1721,174.70085 350.26425,175.66605 350.26425,176.8792 C 350.26425,178.3156 350.117,179.4746 349.82155,180.36 C 349.52515,181.24445 349.0853,181.9256 348.49725,182.4044 C 347.9092,182.88415 347.16725,183.12355 346.27045,183.12355 C 345.0896,183.12355 344.1624,182.70365 343.48885,181.86195 C 342.6823,180.8388 342.27855,179.1782 342.27855,176.8792 z M 343.8223,176.88205 C 343.8223,178.89605 344.0579,180.2346 344.52815,180.89865 C 344.99935,181.5608 345.5798,181.89235 346.2714,181.89235 C 346.963,181.89235 347.54345,181.5589 348.0137,180.8939 C 348.4849,180.2289 348.7205,178.8913 348.7205,176.88205 C 348.7205,174.8671 348.48585,173.52855 348.0156,172.86545 C 347.5463,172.2033 346.96015,171.87175 346.2543,171.87175 C 345.5627,171.87175 345.0098,172.16435 344.5956,172.7486 C 344.07975,173.49435 343.8223,174.87185 343.8223,176.88205 z"
   style="fill:#231f20" /><path
   id="path193"
   d="M 351.789,176.8792 C 351.789,175.43235 351.93815,174.26575 352.23645,173.3813 C 352.5338,172.4959 352.9765,171.8157 353.5636,171.33975 C 354.15165,170.8638 354.8898,170.62535 355.78185,170.62535 C 356.4383,170.62535 357.01685,170.75835 357.51465,171.0215 C 358.01245,171.28655 358.4219,171.6675 358.74205,172.16625 C 359.06315,172.6631 359.31585,173.27015 359.4992,173.9855 C 359.68255,174.70085 359.7747,175.66605 359.7747,176.8792 C 359.7747,178.3156 359.62745,179.4746 359.332,180.36 C 359.03655,181.24445 358.59575,181.9256 358.00675,182.4044 C 357.41965,182.88415 356.67865,183.12355 355.7809,183.12355 C 354.60005,183.12355 353.67285,182.70365 352.99835,181.86195 C 352.1918,180.8388 351.789,179.1782 351.789,176.8792 z M 353.33275,176.88205 C 353.33275,178.89605 353.56835,180.2346 354.0386,180.89865 C 354.5098,181.5608 355.09025,181.89235 355.78185,181.89235 C 356.47345,181.89235 357.0539,181.5589 357.5251,180.8939 C 357.99535,180.2289 358.23095,178.8913 358.23095,176.88205 C 358.23095,174.8671 357.9963,173.52855 357.527,172.86545 C 357.05675,172.2033 356.46965,171.87175 355.7657,171.87175 C 355.0741,171.87175 354.5212,172.16435 354.107,172.7486 C 353.5902,173.49435 353.33275,174.87185 353.33275,176.88205 z"
   style="fill:#231f20" /><path
   id="path195"
   d="M 360.55655,179.08605 L 360.55655,177.8691 L 370.05655,177.8691 L 370.05655,179.08605 L 360.55655,179.08605 z"
   style="fill:#231f20" /><path
   id="path197"
   d="M 378.63125,173.6682 L 377.13215,173.78695 C 376.99725,173.197 376.80725,172.7676 376.5612,172.50065 C 376.1527,172.0722 375.65015,171.8575 375.05165,171.8575 C 374.57,171.8575 374.14535,171.99145 373.7777,172.25935 C 373.3065,172.6042 372.9341,173.1096 372.6605,173.77175 C 372.38595,174.4339 372.2444,175.3782 372.233,176.60275 C 372.5959,176.05175 373.03955,175.6423 373.56395,175.37535 C 374.08835,175.1084 374.6384,174.97445 375.21315,174.97445 C 376.2173,174.97445 377.0723,175.34305 377.7791,176.0812 C 378.484,176.81745 378.8374,177.77125 378.8374,178.9407 C 378.8374,179.70925 378.67115,180.42365 378.3396,181.082 C 378.0071,181.74225 377.5511,182.24765 376.97065,182.5982 C 376.39115,182.94875 375.73185,183.1245 374.99465,183.1245 C 373.7397,183.1245 372.7156,182.6647 371.92235,181.7432 C 371.13005,180.8217 370.7339,179.3036 370.7339,177.18795 C 370.7339,174.8234 371.1728,173.10295 372.0506,172.0285 C 372.8163,171.0937 373.84705,170.62535 375.1438,170.62535 C 376.1109,170.62535 376.9032,170.89515 377.5207,171.43475 C 378.1382,171.9734 378.5087,172.71725 378.63125,173.6682 z M 372.45625,178.9464 C 372.45625,179.4651 372.56645,179.961 372.7878,180.43505 C 373.00915,180.9091 373.31695,181.2701 373.7112,181.519 C 374.10545,181.76695 374.5225,181.8914 374.96425,181.8914 C 375.60645,181.8914 376.15555,181.63395 376.61155,181.1219 C 377.0666,180.60795 377.29555,179.9116 377.29555,179.03095 C 377.29555,178.1826 377.0704,177.51475 376.6201,177.0274 C 376.16885,176.5391 375.5979,176.29495 374.90535,176.29495 C 374.2223,176.29495 373.6447,176.5391 373.16875,177.0274 C 372.69375,177.5157 372.45625,178.15505 372.45625,178.9464 z"
   style="fill:#231f20" /><path
   id="path199"
   d="M 380.3194,176.8792 C 380.3194,175.43235 380.4676,174.26575 380.76685,173.3813 C 381.0642,172.4959 381.5069,171.8157 382.094,171.33975 C 382.6811,170.8638 383.42115,170.62535 384.31225,170.62535 C 384.9687,170.62535 385.54725,170.75835 386.04505,171.0215 C 386.54285,171.28655 386.9523,171.6675 387.2734,172.16625 C 387.59355,172.6631 387.84625,173.27015 388.0296,173.9855 C 388.21295,174.70085 388.3051,175.66605 388.3051,176.8792 C 388.3051,178.3156 388.15785,179.4746 387.8624,180.36 C 387.566,181.24445 387.12615,181.9256 386.5381,182.4044 C 385.95005,182.88415 385.2081,183.12355 384.3113,183.12355 C 383.13045,183.12355 382.20325,182.70365 381.5297,181.86195 C 380.72315,180.8388 380.3194,179.1782 380.3194,176.8792 z M 381.86315,176.88205 C 381.86315,178.89605 382.09875,180.2346 382.569,180.89865 C 383.0402,181.5608 383.62065,181.89235 384.31225,181.89235 C 385.00385,181.89235 385.5843,181.5589 386.05455,180.8939 C 386.52575,180.2289 386.76135,178.8913 386.76135,176.88205 C 386.76135,174.8671 386.5267,173.52855 386.05645,172.86545 C 385.58715,172.2033 385.001,171.87175 384.29515,171.87175 C 383.60355,171.87175 383.05065,172.16435 382.63645,172.7486 C 382.1206,173.49435 381.86315,174.87185 381.86315,176.88205 z"
   style="fill:#231f20" /><path
   id="path201"
   d="M 389.82985,176.8792 C 389.82985,175.43235 389.979,174.26575 390.2773,173.3813 C 390.57465,172.4959 391.01735,171.8157 391.60445,171.33975 C 392.1925,170.8638 392.93065,170.62535 393.8227,170.62535 C 394.47915,170.62535 395.0577,170.75835 395.5555,171.0215 C 396.0533,171.28655 396.46275,171.6675 396.7829,172.16625 C 397.104,172.6631 397.3567,173.27015 397.54005,173.9855 C 397.7234,174.70085 397.81555,175.66605 397.81555,176.8792 C 397.81555,178.3156 397.6683,179.4746 397.37285,180.36 C 397.0774,181.24445 396.6366,181.9256 396.0476,182.4044 C 395.4605,182.88415 394.7195,183.12355 393.82175,183.12355 C 392.6409,183.12355 391.7137,182.70365 391.0392,181.86195 C 390.23265,180.8388 389.82985,179.1782 389.82985,176.8792 z M 391.3736,176.88205 C 391.3736,178.89605 391.6092,180.2346 392.07945,180.89865 C 392.55065,181.5608 393.1311,181.89235 393.8227,181.89235 C 394.5143,181.89235 395.09475,181.5589 395.56595,180.8939 C 396.0362,180.2289 396.2718,178.8913 396.2718,176.88205 C 396.2718,174.8671 396.03715,173.52855 395.56785,172.86545 C 395.0976,172.2033 394.5105,171.87175 393.80655,171.87175 C 393.11495,171.87175 392.56205,172.16435 392.14785,172.7486 C 391.63105,173.49435 391.3736,174.87185 391.3736,176.88205 z"
   style="fill:#231f20" />
</svg>